# xmcd
#
# Track frame offsets:
#	150
#	18023
#	34804
#	51739
#	65436
#	82141
#	99443
#	118617
#	130039
#	154301
#	169203
#	186753
#	207749
#	220586
#	237575
#
# Disc length: 3387
#
# Revision: 3
# Processed by: cddbd v1.5.1PL0 Copyright (c) Steve Scherf et al.
# Submitted via: audiograbber 1.81.00
# Normalized: r2:DSETVAR1
#
DISCID=da0d390f
DTITLE=Various Artist - CDX Volume 306 December 2002
DYEAR=2002
DGENRE=Country
TTITLE0=Martina McBride - Concrete Angel
TTITLE1=Danni Leigh - Last Train To San Antone
TTITLE2=Aaron Tippin f/ Thea Tippin - Love Like There's No Tomorrow
TTITLE3=Tammy Cochran - Love Won't Let Me
TTITLE4=Reckless Johnny Wales - Not On My Mind At All
TTITLE5=Jessica Andrews - There's More To Me Than You
TTITLE6=Tebey - We Shook Hands (Man To Man)
TTITLE7=Bobby Seals - Corvette Jet
TTITLE8=Flint Thompson - My Time With You
TTITLE9=Chip Taylor and Carrie Rodriguez - Sweet Tequila Blues
TTITLE10=Jo Dee Messina - A Joyful Noise
TTITLE11=Jamie O'Neal - Silent Night
TTITLE12=Shane Sellers - Cajun Christmas
TTITLE13=Jerry Springer - Pink Flamingos
TTITLE14=Margo Smith - The Littlest Star
EXTD=
EXTT0=
EXTT1=
EXTT2=
EXTT3=
EXTT4=
EXTT5=
EXTT6=
EXTT7=
EXTT8=
EXTT9=
EXTT10=
EXTT11=
EXTT12=
EXTT13=
EXTT14=
PLAYORDER=
